<?xml version="1.0" encoding="UTF-8" standalone="no"?>
<svg
   xmlns:dc="http://purl.org/dc/elements/1.1/"
   xmlns:cc="http://creativecommons.org/ns#"
   xmlns:rdf="http://www.w3.org/1999/02/22-rdf-syntax-ns#"
   xmlns:svg="http://www.w3.org/2000/svg"
   xmlns="http://www.w3.org/2000/svg"
   xmlns:xlink="http://www.w3.org/1999/xlink"
   xmlns:sodipodi="http://sodipodi.sourceforge.net/DTD/sodipodi-0.dtd"
   xmlns:inkscape="http://www.inkscape.org/namespaces/inkscape"
   sodipodi:docname="logogram-hujanio.svg"
   inkscape:version="1.0beta2 (2b71d25, 2019-12-03)"
   id="svg8"
   version="1.1"
   viewBox="0 0 35.71875 35.718752"
   height="135"
   width="135">
  <defs
     id="defs2">
    <linearGradient
       id="linearGradient1626"
       inkscape:collect="always">
      <stop
         id="stop1622"
         offset="0"
         style="stop-color:#5fd3bc;stop-opacity:1" />
      <stop
         id="stop1624"
         offset="1"
         style="stop-color:#3771c8;stop-opacity:1" />
    </linearGradient>
    <linearGradient
       gradientTransform="matrix(1.1833087,0,0,1.1833087,-305.67458,329.4102)"
       gradientUnits="userSpaceOnUse"
       y2="187.52766"
       x2="282.80786"
       y1="218.83113"
       x1="274.42014"
       id="linearGradient1628"
       xlink:href="#linearGradient1626"
       inkscape:collect="always" />
  </defs>
  <sodipodi:namedview
     showguides="false"
     inkscape:document-rotation="0"
     inkscape:snap-page="false"
     inkscape:snap-grids="false"
     inkscape:window-maximized="1"
     inkscape:window-y="22"
     inkscape:window-x="0"
     inkscape:window-height="756"
     inkscape:window-width="1280"
     inkscape:snap-smooth-nodes="true"
     units="px"
     showgrid="true"
     inkscape:current-layer="layer1"
     inkscape:document-units="px"
     inkscape:cy="30.040716"
     inkscape:cx="215.68517"
     inkscape:zoom="1.3763489"
     inkscape:pageshadow="2"
     inkscape:pageopacity="0"
     borderopacity="1.0"
     bordercolor="#666666"
     pagecolor="#ffffff"
     id="base">
    <inkscape:grid
       originy="494.14731"
       originx="0"
       spacingy="5.2916667"
       spacingx="5.2916667"
       id="grid815"
       type="xygrid" />
  </sodipodi:namedview>
  <metadata
     id="metadata5">
    <rdf:RDF>
      <cc:Work
         rdf:about="">
        <dc:format>image/svg+xml</dc:format>
        <dc:type
           rdf:resource="http://purl.org/dc/dcmitype/StillImage" />
        <dc:title></dc:title>
      </cc:Work>
    </rdf:RDF>
  </metadata>
  <g
     transform="translate(0,-553.02228)"
     id="layer1"
     inkscape:groupmode="layer"
     inkscape:label="Layer 1">
    <g
       transform="translate(-5.2040035,-0.39192)"
       id="g1002">
      <path
         style="vector-effect:none;fill:#ffffff;fill-opacity:1;fill-rule:nonzero;stroke:none;stroke-width:0.396874;stroke-linecap:round;stroke-linejoin:round;stroke-miterlimit:4;stroke-dasharray:none;stroke-dashoffset:0;stroke-opacity:0.419608;paint-order:normal"
         d="M 5.2040035,553.4142 H 40.922754 v 35.71875 H 5.2040035 Z"
         id="rect1462"
         inkscape:connector-curvature="0" />
      <path
         style="vector-effect:none;fill:url(#linearGradient1628);fill-opacity:1;fill-rule:nonzero;stroke:none;stroke-width:3.96875;stroke-linecap:round;stroke-linejoin:round;stroke-miterlimit:4;stroke-dasharray:none;stroke-dashoffset:0;stroke-opacity:0.419608;paint-order:normal"
         d="m 23.063379,555.61938 a 15.654199,15.654199 0 0 0 -4.696895,0.73991 v 21.22796 c 1.509168,-1.65932 3.48798,-2.90559 5.766393,-3.5161 1.309911,-0.35097 2.638672,-0.47047 3.938004,-0.37912 3.471875,0.24427 6.727157,1.99913 8.835447,4.8687 a 15.654199,15.654199 0 0 0 1.811255,-7.28714 15.654199,15.654199 0 0 0 -15.654204,-15.65421 z m -7.826487,2.11944 a 15.654199,15.654199 0 0 0 -7.8277173,13.53477 15.654199,15.654199 0 0 0 7.8277173,13.54087 z m 11.895957,19.05347 c -0.727428,0.009 -1.463055,0.10863 -2.191595,0.30391 -3.885441,1.04111 -6.574723,4.54514 -6.57477,8.56763 a 1.5655763,1.5655763 0 0 1 0,0.0165 v 0.52282 a 15.654199,15.654199 0 0 0 4.696895,0.72463 15.654199,15.654199 0 0 0 11.952826,-5.54808 1.5655763,1.5655763 0 0 1 -0.09537,-0.15104 c -1.634102,-2.8304 -4.635671,-4.47692 -7.787958,-4.43637 z"
         id="circle1468"
         inkscape:connector-curvature="0" />
    </g>
  </g>
</svg>
